<?xml version="1.0" standalone="no"?>
<!DOCTYPE svg PUBLIC "-//W3C//DTD SVG 20010904//EN"
 "http://www.w3.org/TR/2001/REC-SVG-20010904/DTD/svg10.dtd">
<svg version="1.0" xmlns="http://www.w3.org/2000/svg"
 width="260.000000pt" height="260.000000pt" viewBox="0 0 260.000000 260.000000"
 preserveAspectRatio="xMidYMid meet">
<metadata>
Created by potrace 1.14, written by Peter Selinger 2001-2017
</metadata>
<g transform="translate(0.000000,260.000000) scale(0.100000,-0.100000)"
fill="#000000" stroke="none">
<path d="M540 2106 c-18 -6 -50 -26 -71 -45 l-37 -36 -99 0 c-86 0 -104 -4
-143 -25 -93 -52 -130 -172 -81 -268 21 -40 21 -53 21 -612 l0 -570 1178 1
1177 2 -1 576 c0 475 2 582 14 611 24 61 19 134 -15 188 -44 72 -93 94 -210
96 -88 2 -95 4 -119 29 -58 62 -16 59 -835 61 -440 0 -760 -3 -779 -8z"/>
</g>
</svg>
